<svg height="100%" width="100%" viewBox="0 0 15.492 18" data-reactid=".2.3.0.0.1.0.0.0.1.0.0.0.0.0"><path class="st0" d="M15.462 4.793l-0.008-0.044 -0.01-0.057 -0.028-0.051 -0.043-0.078c-0.054-0.098-0.123-0.184-0.206-0.257l-0.013-0.013 -0.031-0.031L15.085 4.24 8.23 0.134l-0.01-0.006 -0.01-0.005L8.067 0.049 8.004 0.017l-0.07-0.005 -0.128-0.01C7.782 0 7.764 0 7.747 0 7.635 0 7.526 0.02 7.422 0.058L7.375 0.075 7.342 0.086l-0.03 0.018L0.463 4.206 0.458 4.209 0.453 4.213 0.417 4.236 0.412 4.24 0.407 4.243C0.289 4.326 0.19 4.436 0.12 4.562l-0.048 0.09 -0.027 0.05 -0.01 0.056 -0.007 0.04C0.01 4.874 0 4.951 0 5.027v7.794l0 0.073 0 0.042 0.01 0.041 0.039 0.159 0.012 0.048 0.024 0.043 0.083 0.145 0.028 0.049 0.041 0.037 0.021 0.019c0.015 0.016 0.029 0.03 0.041 0.041l0.031 0.033 0.032 0.034 0.039 0.024 6.835 4.242 0.084 0.056 0.064 0.042 0.075 0.012 0.039 0.006C7.579 17.989 7.662 18 7.746 18c0.084 0 0.167-0.011 0.248-0.033l0.039-0.006 0.07-0.011 0.06-0.037 6.861-4.267 0.05-0.028 0.044-0.025 0.035-0.036 0.039-0.04c0.012-0.011 0.026-0.025 0.04-0.04l0.026-0.024 0.043-0.039 0.028-0.051 0.079-0.143 0.022-0.039 0.011-0.044 0.04-0.159 0.011-0.043V5.027C15.492 4.949 15.482 4.87 15.462 4.793zM13.681 4.856l-1.027 0.543 -2.12-2.428L13.681 4.856zM14.273 5.827v3.725l-1.06-3.164L14.273 5.827zM4.959 2.97l-2.12 2.428L1.812 4.856 4.959 2.97zM1.22 5.827l1.06 0.56L1.22 9.553V5.827zM7.182 16.403l-3.554-2.208 3.554 0.716L7.182 16.403zM8.311 16.402l0-1.493 3.554-0.716L8.311 16.402zM14.554 12.851l-3.707 0.747 -3.1 0.624 0 0 0 0 -3.283-0.661 -3.524-0.71 0.046-0.136 2.171-6.482 0.003-0.01 0.009-0.01 4.579-5.244 0 0 0 0 4.579 5.244 0.009 0.01 0.003 0.01L14.554 12.851 14.554 12.851zM11.55 7.826H9.632c-0.329 0-0.598-0.271-0.598-0.602V5.48c0-0.331-0.269-0.602-0.598-0.602H7.084c-0.329 0-0.598 0.271-0.598 0.602v1.743c0 0.331-0.269 0.602-0.598 0.602H3.951c-0.329 0-0.598 0.271-0.598 0.602v1.229c0 0.331 0.269 0.603 0.598 0.603h1.937c0.329 0 0.598 0.271 0.598 0.603v1.724c0 0.331 0.269 0.602 0.598 0.602h1.352c0.329 0 0.598-0.271 0.598-0.602v-1.724c0-0.331 0.269-0.603 0.598-0.603h1.918c0.329 0 0.598-0.271 0.598-0.603V8.428C12.148 8.097 11.879 7.826 11.55 7.826zM7.746 10.051c-0.558 0-1.01-0.456-1.01-1.018 0-0.562 0.452-1.018 1.01-1.018 0.558 0 1.01 0.456 1.01 1.018C8.756 9.596 8.304 10.051 7.746 10.051z" data-reactid=".2.3.0.0.1.0.0.0.1.0.0.0.0.0.0"></path></svg>
